# xmcd
# Copyright (C) 1995-1998 Ti Kan
#
# Track frame offsets:
#       150
#       50505
#       133584
#       217571
#
# Disc length: 3746 seconds
#
# Revision: 0
# Processed by: cddbd v1.5.2PL0 Copyright (c) Steve Scherf et al.
# Submitted via: CD-Transfer v1.0
#
DISCID=2e0ea004
DTITLE=Friday Night Life - 
DYEAR=09
DGENRE=
TTITLE0=Mixed By Dj René 5
TTITLE1=Mixed By Dj René 6
TTITLE2=Mixed By Dj René 7
TTITLE3=Mixed By Dj René 8
EXTD=
EXTT0=
EXTT1=
EXTT2=
EXTT3=
PLAYORDER=
